<svg width="16" height="16" viewBox="0 0 16 16" fill="none" xmlns="http://www.w3.org/2000/svg">
<g clip-path="url(#clip0_570502_2185)">
<path d="M13.3334 6.25705C13.0873 6.25705 12.8565 6.32239 12.6582 6.43623C12.5837 5.78799 12.0179 5.28275 11.3334 5.28275C11.0078 5.28275 10.7087 5.39757 10.4763 5.5888C10.2429 5.21108 9.81806 4.95797 9.33337 4.95797C9.09087 4.95797 8.863 5.02139 8.66672 5.1324V1.71033C8.66669 0.993855 8.06872 0.411255 7.33337 0.411255C6.59803 0.411255 6.00003 0.993855 6.00003 1.71033V10.4023C6.00003 10.5659 5.88934 10.65 5.84181 10.6785C5.79428 10.7071 5.66634 10.7657 5.51759 10.6928L3.37697 9.64998C3.18197 9.55484 2.96356 9.50472 2.74547 9.50472C1.96681 9.50472 1.33337 10.1219 1.33337 10.8806V11.1285C1.33337 11.2186 1.37178 11.3046 1.43916 11.3661L5.2865 14.8646C6.09181 15.5966 7.14197 16 8.24319 16H10.3333C12.7227 16 14.6667 14.106 14.6667 11.7781V7.55613C14.6667 6.83965 14.0687 6.25705 13.3334 6.25705ZM14 11.7781C14 13.7479 12.3552 15.3505 10.3334 15.3505H8.24322C7.31156 15.3505 6.4229 15.0092 5.74159 14.3895L2.00003 10.9874V10.8806C2.00003 10.48 2.33434 10.1542 2.74547 10.1542C2.86037 10.1542 2.97594 10.1809 3.07881 10.231L5.21944 11.2738C5.53162 11.4263 5.89553 11.4095 6.19241 11.2313C6.48928 11.0524 6.66669 10.7426 6.66669 10.4023V1.71033C6.66669 1.35228 6.96584 1.06081 7.33334 1.06081C7.70084 1.06081 8 1.35228 8 1.71033V6.58183C8 6.76134 8.14909 6.9066 8.33334 6.9066C8.51759 6.9066 8.66669 6.76134 8.66669 6.58183V6.25705C8.66669 5.89899 8.96584 5.60753 9.33334 5.60753C9.70084 5.60753 10 5.89899 10 6.25705V6.58183C10 6.58247 10 6.5831 10 6.58374V6.58405C10.0013 6.76228 10.1501 6.9066 10.3333 6.9066C10.5176 6.9066 10.6667 6.76134 10.6667 6.58183V6.57674C10.6693 6.22121 10.9681 5.93227 11.3333 5.93227C11.7008 5.93227 12 6.22374 12 6.5818V7.55609C12 7.73561 12.1491 7.88087 12.3333 7.88087C12.5176 7.88087 12.6667 7.73561 12.6667 7.55609C12.6667 7.19804 12.9658 6.90657 13.3333 6.90657C13.7008 6.90657 14 7.19804 14 7.55613V11.7781Z" fill="#2E2F42"/>
</g>
<defs>
<clipPath id="clip0_570502_2185">
<rect width="16" height="15.5888" fill="white" transform="translate(0 0.411255)"/>
</clipPath>
</defs>
</svg>
